<svg id="Laag_1" xmlns="http://www.w3.org/2000/svg" viewBox="0 0 355 85"><style>.st0{fill:#e42621}.st1{fill:#9fa0a7}.st2{fill:#fff}</style><path class="st0" d="M122.2 47.4v3.5h-12.1c-2 0-3.7-1.7-3.7-3.7v-8.1c0-2 1.7-3.7 3.7-3.7h12v3.5h-12c-.1 0-.2.1-.2.2v8.1c0 .1.1.2.2.2h12.1zM136.4 35.4c2 0 3.7 1.7 3.7 3.7v8.1c0 2-1.7 3.7-3.7 3.7H128c-2 0-3.7-1.7-3.7-3.7v-8.1c0-2 1.7-3.7 3.7-3.7h8.4zm-8.3 3.5c-.1 0-.2.1-.2.2v8.1c0 .1.1.2.2.2h8.4c.1 0 .2-.1.2-.2v-8.1c0-.1-.1-.2-.2-.2h-8.4zM158 39.1v11.8h-3.5V39.1c0-.1-.1-.2-.2-.2h-8.4c-.1 0-.2.1-.2.2v11.8h-3.5V35.4h12.1c2 0 3.7 1.7 3.7 3.7zM164.3 38.9v8.3c0 .1.1.2.2.2h5.9v3.5h-5.9c-2.1 0-3.7-1.7-3.7-3.7V30.3h3.5v5.1h6v3.5h-6zM184.8 35.4v3.5h-8.6c-.1 0-.2.1-.2.2v11.8h-3.5V39.1c0-2 1.7-3.7 3.7-3.7h8.6zM190.1 30.3v3.5h-3.5v-3.5h3.5zm-3.5 5.1h3.5v15.5h-3.5V35.4zM208.7 39.1v8.1c0 2-1.7 3.7-3.7 3.7h-12.1V30.3h3.5v5.1h8.6c2 0 3.7 1.7 3.7 3.7zm-3.6 0c0-.1-.1-.2-.2-.2h-8.4c-.1 0-.2.1-.2.2v8.1c0 .1.1.2.2.2h8.4c.1 0 .2-.1.2-.2v-8.1zM226.5 35.4v11.8c0 2-1.7 3.7-3.7 3.7h-8.4c-2.1 0-3.7-1.7-3.7-3.7V35.4h3.5v11.8c0 .1.1.2.2.2h8.4c.1 0 .2-.1.2-.2V35.4h3.5zM232.2 38.9v8.3c0 .1.1.2.2.2h5.9v3.5h-5.9c-2.1 0-3.7-1.7-3.7-3.7V30.3h3.5v5.1h6v3.5h-6zM256.1 39.1v5.8h-12.3v2.3c0 .1.1.2.2.2h12.1v3.5H244c-2 0-3.7-1.7-3.7-3.7v-8.1c0-2 1.7-3.7 3.7-3.7h8.4c2 0 3.7 1.7 3.7 3.7zm-3.5 2.3v-2.3c0-.1-.1-.2-.2-.2H244c-.1 0-.2.1-.2.2v2.3h8.8z"/><path class="st1" d="M278.9 57.1h-9.5v-3.5h9.5c.1 0 .2-.1.2-.2v-2.5h-8.6c-2 0-3.7-1.7-3.7-3.7v-8.1c0-2 1.7-3.7 3.7-3.7h8.4c2 0 3.7 1.7 3.7 3.7v14.3c0 2-1.7 3.7-3.7 3.7zm0-9.7c.1 0 .2-.1.2-.2v-8.1c0-.1-.1-.2-.2-.2h-8.4c-.1 0-.2.1-.2.2v8.1c0 .1.1.2.2.2h8.4zM297 35.4v3.5h-8.6c-.1 0-.2.1-.2.2v11.8h-3.5V39.1c0-2 1.7-3.7 3.7-3.7h8.6zM310.9 35.4c2 0 3.7 1.7 3.7 3.7v8.1c0 2-1.7 3.7-3.7 3.7h-8.4c-2 0-3.7-1.7-3.7-3.7v-8.1c0-2 1.7-3.7 3.7-3.7h8.4zm-8.4 3.5c-.1 0-.2.1-.2.2v8.1c0 .1.1.2.2.2h8.4c.1 0 .2-.1.2-.2v-8.1c0-.1-.1-.2-.2-.2h-8.4zM332.4 35.4v11.8c0 2-1.7 3.7-3.7 3.7h-8.4c-2.1 0-3.7-1.7-3.7-3.7V35.4h3.5v11.8c0 .1.1.2.2.2h8.4c.1 0 .2-.1.2-.2V35.4h3.5zM350.4 39.1v8.1c0 2-1.7 3.7-3.7 3.7h-8.6v6.2h-3.5V35.4h12.1c2 0 3.7 1.7 3.7 3.7zm-3.5 0c0-.1-.1-.2-.2-.2h-8.4c-.1 0-.2.1-.2.2v8.1c0 .1.1.2.2.2h8.4c.1 0 .2-.1.2-.2v-8.1z"/><g><path class="st0" d="M14.7 16.6C21.8 9.6 30.4 6 40.4 6S59 9.5 66.2 16.5l.1.1c1.8 1.8 2.6 4 2.6 6.5s-.9 4.7-2.6 6.4c-1.8 1.8-4 2.6-6.5 2.6s-4.7-.9-6.4-2.6c-3.6-3.6-7.9-5.3-13-5.3-5 0-9.3 1.8-12.8 5.3-3.6 3.6-5.4 7.9-5.4 12.9s1.8 9.3 5.4 12.9c3.5 3.6 7.8 5.4 12.8 5.4 5 0 9.4-1.8 13-5.4 1.8-1.8 3.9-2.6 6.4-2.6 2.5 0 4.7.9 6.5 2.6 1.8 1.8 2.6 4 2.6 6.5s-.9 4.7-2.6 6.4l-.1.2C59.1 75.5 50.5 79 40.4 79c-10 0-18.6-3.6-25.7-10.7C7.6 61.2 4.1 52.6 4.1 42.5c0-10.1 3.5-18.7 10.6-25.9z"/><circle class="st1" cx="40.7" cy="42.5" r="12.6"/><circle class="st1" cx="82.6" cy="42.5" r="14.4"/><path class="st1" d="M37.9 54.8s6.6 2.1 14.5-5.3c4.1-3.9 9.8-3.7 13.9-1.9 3.2 1.4 6.1 5.4 7.7 6.6 9.4 6.5-.6-10.5-.6-10.5l-2.1-4.3-25.7-1.3-7.7 16.7z"/><path class="st1" d="M37.9 30.2s6.6-2.1 14.5 5.3c4.1 3.9 9.8 3.7 13.9 1.9 3.2-1.4 6.1-5.4 7.7-6.6 9.4-6.5-.6 10.5-.6 10.5l-2.1 4.3-25.7 1.3-7.7-16.7z"/><circle class="st2" cx="82.6" cy="42.5" r="8"/><circle class="st0" cx="82.7" cy="42.5" r="6.2"/></g></svg>